<svg width="1344" height="217" viewBox="0 0 1344 217" fill="none" xmlns="http://www.w3.org/2000/svg">
<path d="M189.743 0.377542C187.617 0.150577 184.66 0 180.977 0C177.425 0 174.572 0.0752892 172.418 0.251325C170.24 0.377539 168.633 0.678683 167.439 1.10715C166.221 1.5345 165.417 2.08807 164.949 2.8675C164.431 3.57164 164.043 4.55258 163.653 5.68518L99.2321 176.861H98.9986L32.7622 5.38293C32.2952 4.30126 31.7763 3.44654 31.2315 2.76675C30.6877 2.08807 29.9094 1.5345 28.8716 1.10715C27.809 0.704147 26.2522 0.377539 24.2815 0.251325C22.3367 0.0752892 19.7174 0 16.3456 0C12.3252 0 9.1102 0.126217 6.69728 0.352075C4.33738 0.553575 2.57422 1.0064 1.56235 1.736C0.525661 2.48997 -0.0710543 3.54619 0.00678185 4.98104C0.110563 6.41479 0.577552 8.22497 1.56235 10.54L77.1097 199.853C77.421 200.682 77.7843 201.386 78.2253 201.991C78.6405 202.594 79.2101 203.072 79.9626 203.474C80.6371 203.927 81.5181 204.255 82.5041 204.506C83.5159 204.807 84.7602 205.034 86.1612 205.236C87.6131 205.461 89.2995 205.562 91.2702 205.663C93.2669 205.663 95.523 205.738 98.1424 205.738C101.618 205.738 104.471 205.663 106.805 205.461C109.139 205.336 111.032 205.034 112.562 204.607C114.014 204.178 115.182 203.626 116.012 202.871C116.867 202.141 117.49 201.186 117.983 200.029L193.348 10.7404C194.333 8.42647 194.878 6.56536 195.034 5.18143C195.241 3.74768 194.93 2.666 194.203 1.93639C193.322 1.18243 191.87 0.654328 189.743 0.377542Z" fill="#94a3b8"/>
<path d="M1342.44 195.147L1266.93 5.83648C1266.54 5.00602 1266.17 4.30178 1265.73 3.72378C1265.31 3.11921 1264.73 2.6165 1264.05 2.23892C1263.29 1.81151 1262.47 1.4594 1261.48 1.18258C1260.47 0.931224 1259.22 0.704236 1257.82 0.478351C1256.4 0.251358 1254.69 0.126237 1252.71 0.0753023C1250.74 0.0753023 1248.46 0 1245.85 0C1242.39 0 1239.5 0.0752985 1237.16 0.251356C1234.85 0.377586 1232.95 0.678767 1231.51 1.10728C1230 1.53469 1228.84 2.08833 1227.98 2.86785C1227.18 3.57208 1226.52 4.55314 1226 5.68589L1150.67 194.971C1149.77 197.261 1149.17 199.172 1148.93 200.582C1148.81 202.016 1149.07 203.072 1149.89 203.827C1150.65 204.557 1152.1 205.034 1154.26 205.336C1156.35 205.562 1159.29 205.738 1162.94 205.738C1166.52 205.738 1169.43 205.663 1171.55 205.461C1173.7 205.336 1175.34 205.034 1176.56 204.607C1177.75 204.179 1178.55 203.626 1179.05 202.87C1179.59 202.141 1180.01 201.185 1180.29 200.028L1244.79 28.8557H1244.99L1311.19 200.33C1311.66 201.387 1312.2 202.241 1312.74 202.921C1313.22 203.626 1314.07 204.179 1315.16 204.607C1316.25 205.034 1317.73 205.336 1319.65 205.461C1321.64 205.663 1324.32 205.738 1327.63 205.738C1331.7 205.738 1334.9 205.562 1337.28 205.386C1339.69 205.16 1341.37 204.707 1342.47 203.978C1343.5 203.222 1344.02 202.141 1344 200.758C1343.9 199.348 1343.42 197.461 1342.44 195.147Z" fill="#94a3b8"/>
<path d="M278.395 1.33317C277.129 1.00652 275.479 0.654409 273.389 0.377588C271.27 0.150596 268.684 0 265.493 0C262.66 0 260.156 0.150596 258.066 0.377588C255.948 0.654409 254.297 1.00652 252.977 1.33317C251.656 1.71075 250.667 2.21345 250.116 2.86785C249.566 3.49679 249.29 4.22649 249.29 5.08131V200.682C249.29 201.537 249.483 202.267 250.006 202.896C250.556 203.499 251.436 204.003 252.702 204.355C253.967 204.707 255.645 205.059 257.791 205.336C259.909 205.562 262.522 205.738 265.52 205.738C268.712 205.738 271.297 205.562 273.416 205.336C275.507 205.034 277.157 204.707 278.423 204.355C279.715 204.003 280.568 203.499 281.064 202.896C281.614 202.267 281.807 201.537 281.807 200.682V5.08131C281.807 4.22649 281.587 3.49679 281.064 2.86785C280.568 2.23892 279.688 1.71075 278.395 1.33317Z" fill="#94a3b8"/>
<path d="M460.482 116.851C455.625 112.385 450.023 108.465 443.778 105.142C437.508 101.819 431.135 98.7822 424.659 96.0296C418.183 93.2782 411.81 90.5267 405.54 87.8266C399.269 85.1266 393.692 82.1408 388.81 78.8695C383.876 75.5981 379.996 71.8605 377.041 67.6545C374.162 63.4484 372.645 58.3351 372.645 52.5191C372.645 48.5473 373.417 44.7309 374.933 41.1487C376.475 37.5917 378.788 34.502 381.872 31.9322C384.93 29.2847 388.784 27.2074 393.538 25.6762C398.216 24.1177 403.767 23.3133 410.114 23.3133C417.001 23.3133 423.168 24.1177 428.668 25.6762C434.167 27.2074 438.87 28.9465 442.905 30.8684C446.862 32.7629 450.331 34.4506 453.081 36.008C455.831 37.4877 457.886 38.267 459.172 38.267C459.968 38.267 460.713 38.0076 461.356 37.514C462.024 37.0466 462.538 36.2673 462.897 35.2035C463.232 34.2426 463.489 32.9445 463.643 31.4134C463.874 29.8811 463.977 28.1935 463.977 26.195C463.977 24.1702 463.874 22.4826 463.797 21.1845C463.592 19.8088 463.463 18.7701 463.232 17.8092C463 16.927 462.692 16.1478 462.332 15.5513C461.973 14.98 461.227 14.1493 460.148 13.1106C459.043 12.0983 456.705 10.7488 453.132 9.06112C449.611 7.37345 445.552 5.89373 441.029 4.51799C436.506 3.16739 431.674 2.07732 426.483 1.24662C421.421 0.467343 416.281 0 411.219 0C401.325 0 392.074 1.24662 383.516 3.6873C374.959 6.12683 367.609 9.68386 361.416 14.331C355.222 19.0295 350.417 24.7153 346.896 31.6214C343.401 38.5263 341.705 46.3409 341.705 55.1415C341.705 63.6301 343.144 71.0035 346.202 77.1304C349.183 83.2309 353.141 88.631 357.972 93.1479C362.803 97.691 368.277 101.638 374.419 105.038C380.56 108.361 386.883 111.451 393.359 114.202C399.86 116.955 406.208 119.68 412.375 122.302C418.594 124.976 424.119 127.91 428.95 131.129C433.781 134.297 437.688 138.034 440.618 142.266C443.522 146.498 445.012 151.586 445.012 157.531C445.012 163.087 444.009 167.968 441.825 172.329C439.718 176.691 436.685 180.326 432.728 183.31C428.77 186.27 424.042 188.606 418.568 190.216C413.069 191.826 407.029 192.657 400.426 192.657C391.739 192.657 384.004 191.696 377.349 189.827C370.641 187.932 364.962 185.906 360.285 183.752C355.557 181.571 351.701 179.598 348.669 177.729C345.637 175.911 343.349 174.977 341.705 174.977C340.78 174.977 339.932 175.158 339.238 175.548C338.518 175.911 337.927 176.587 337.491 177.548C336.951 178.56 336.643 179.806 336.411 181.389C336.128 182.973 336 184.92 336 187.334C336 190.684 336.334 193.331 336.977 195.331C337.645 197.329 338.698 199.017 340.009 200.315C341.345 201.613 343.761 203.17 347.282 205.013C350.777 206.858 355.068 208.648 360.156 210.362C365.322 212.127 371.155 213.581 377.708 214.775C384.287 215.969 391.354 216.567 399.037 216.567C410.011 216.567 420.264 215.216 429.722 212.491C439.229 209.791 447.53 205.741 454.494 200.393C461.536 195.019 466.984 188.477 470.941 180.793C474.899 173.107 476.903 164.333 476.903 154.468C476.903 146.134 475.362 138.917 472.381 132.764C469.322 126.69 465.364 121.316 460.482 116.851Z" fill="#94a3b8"/>
<path d="M571.009 1.33317C569.741 1.00652 568.092 0.654409 566.036 0.377588C563.944 0.150596 561.338 0 558.182 0C555.312 0 552.766 0.150596 550.674 0.377588C548.606 0.654409 546.932 1.00652 545.593 1.33317C544.267 1.71075 543.334 2.21345 542.76 2.86785C542.186 3.49679 541.935 4.22649 541.935 5.08131V200.682C541.935 201.537 542.186 202.267 542.677 202.896C543.167 203.499 544.051 204.003 545.319 204.355C546.574 204.707 548.283 205.059 550.459 205.336C552.647 205.562 555.181 205.738 558.205 205.738C561.361 205.738 563.979 205.562 566.059 205.336C568.152 205.034 569.801 204.707 571.033 204.355C572.3 204.003 573.184 203.499 573.734 202.896C574.248 202.267 574.452 201.537 574.452 200.682V5.08131C574.452 4.22649 574.224 3.49679 573.734 2.86785C573.16 2.23892 572.276 1.71075 571.009 1.33317Z" fill="#94a3b8"/>
<path d="M830.181 27.4175C821.338 18.4604 810.317 11.6837 797.094 7.00979C783.835 2.36211 768.328 0 750.417 0C731.998 0 715.744 2.62267 701.918 7.76288C688.008 12.9042 676.443 20.1734 667.197 29.7282C657.916 39.2052 651.027 50.7073 646.375 64.2606C641.746 77.7877 639.485 92.8472 639.485 109.464C639.485 126.782 641.616 142.101 645.806 155.421C650.044 168.766 656.555 179.905 665.232 188.915C673.945 197.924 684.907 204.753 698.189 209.504C711.494 214.203 727.31 216.567 745.54 216.567C764.031 216.567 780.189 213.97 794.075 208.803C807.925 203.687 819.467 196.288 828.63 186.707C837.804 177.152 844.717 165.521 849.346 151.864C853.951 138.181 856.259 122.887 856.259 105.855C856.259 88.8486 854.14 73.764 849.808 60.6003C845.534 47.3841 838.976 36.3494 830.181 27.4175ZM818.485 140.128C815.951 150.28 811.785 159.289 805.937 167.027C800.053 174.79 792.335 180.918 782.782 185.461C773.146 190.005 761.273 192.289 747.15 192.289C732.945 192.289 721.107 190.213 711.696 186.058C702.249 181.879 694.732 176.036 689.156 168.454C683.498 160.977 679.497 151.994 677.094 141.608C674.762 131.17 673.59 119.824 673.59 107.439C673.59 96.3007 674.845 85.6294 677.425 75.5296C679.982 65.4034 684.196 56.5492 690.139 48.968C696.07 41.3868 703.764 35.3107 713.27 30.7418C722.74 26.1719 734.472 23.9126 748.428 23.9126C762.397 23.9126 774.152 26.0679 783.646 30.2219C793.093 34.4799 800.681 40.2966 806.375 47.8778C812.057 55.4075 816.117 64.2869 818.508 74.5422C820.959 84.7986 822.19 95.8847 822.19 107.803C822.214 119.175 820.959 129.923 818.485 140.128Z" fill="#94a3b8"/>
<path d="M1091.38 1.36146C1090.12 0.882117 1088.48 0.554796 1086.39 0.352851C1084.26 0.150907 1081.72 0 1078.79 0C1075.46 0 1072.81 0.125386 1070.75 0.352851C1068.68 0.554796 1067.04 0.882117 1065.8 1.36146C1064.54 1.83969 1063.67 2.42001 1063.12 3.02473C1062.57 3.65498 1062.32 4.33626 1062.32 5.09189V115.865C1062.32 124.209 1062.35 132.831 1062.35 141.806C1062.49 150.806 1062.6 159.478 1062.85 167.797H1062.66C1059.75 162.856 1056.77 157.915 1053.82 153.05C1050.84 148.134 1047.83 143.142 1044.82 138.126C1041.79 133.058 1038.63 127.965 1035.35 122.747C1032.1 117.504 1028.65 112.185 1025.18 106.713L967.957 17.0665C965.899 13.8399 963.959 11.1169 962.068 8.94991C960.212 6.83171 958.237 5.09189 956.214 3.90796C954.251 2.67189 951.918 1.83969 949.432 1.28601C946.885 0.756738 943.792 0.529271 940.056 0.529271H924.1C920.733 0.529271 917.651 1.41139 914.772 3.20115C911.904 4.99091 910.453 7.96571 910.453 12.2265V200.646C910.453 201.378 910.726 202.083 911.274 202.763C911.821 203.445 912.642 203.998 913.844 204.351C915.022 204.705 916.664 205.058 918.686 205.335C920.768 205.562 923.362 205.738 926.539 205.738C929.764 205.738 932.358 205.562 934.392 205.335C936.463 205.033 938.14 204.705 939.342 204.351C940.651 203.998 941.531 203.469 942.043 202.763C942.59 202.083 942.864 201.378 942.864 200.646V77.4191C942.864 69.6043 942.757 61.7895 942.65 53.8992C942.543 46.0078 942.316 38.2685 942.043 30.68H942.4C945.898 36.9325 949.491 43.2605 953.477 49.8903C957.451 56.4956 961.33 62.747 965.221 68.7477L1039.6 184.89C1042.13 189.049 1044.55 192.352 1046.84 194.999C1049.08 197.646 1051.39 199.713 1053.71 201.251C1055.95 202.789 1058.36 203.822 1060.85 204.377C1063.39 204.981 1066.35 205.259 1069.74 205.259H1080.43C1082.1 205.259 1083.86 205.058 1085.55 204.629C1087.21 204.2 1088.75 203.52 1090.09 202.561C1091.49 201.578 1092.58 200.419 1093.43 198.956C1094.25 197.47 1094.71 195.704 1094.71 193.562V5.14293C1094.71 4.38619 1094.44 3.70601 1093.87 3.07577C1093.43 2.42 1092.56 1.86521 1091.38 1.36146Z" fill="#94a3b8"/>
</svg>
