<svg width="156" height="33" viewBox="0 0 156 33" fill="none" xmlns="http://www.w3.org/2000/svg">
<path d="M32.0345 16.0172C32.0364 24.8613 24.8657 32.0326 16.0201 32.0345C7.17448 32.0364 0.0018994 24.867 3.771e-07 16.0229C3.771e-07 16.0211 3.771e-07 16.0192 3.771e-07 16.0172C-0.00189864 7.17321 7.16879 0.00189906 16.0144 3.77033e-07C24.86 -0.0018983 32.0326 7.16751 32.0345 16.0116C32.0345 16.0135 32.0345 16.0153 32.0345 16.0172Z" fill="url(#paint0_radial_353_282)"/>
<path d="M31.4604 15.4461C31.4624 23.6588 24.6755 30.3164 16.3032 30.3183C7.93289 30.3202 1.14404 23.6627 1.14404 15.4499C1.14404 15.4481 1.14404 15.4461 1.14404 15.4442C1.1421 7.23149 7.92901 0.572022 16.3013 0.572022C24.6735 0.570114 31.4624 7.22767 31.4624 15.4404C31.4604 15.4423 31.4604 15.4442 31.4604 15.4461Z" fill="url(#paint1_linear_353_282)"/>
<path d="M29.1743 13.4431C29.1762 19.9179 23.927 25.168 17.4492 25.1699C10.9734 25.1718 5.72234 19.9235 5.72046 13.4468C5.72046 13.4449 5.72046 13.4449 5.72046 13.4431C5.71857 6.96819 10.9677 1.71802 17.4454 1.71613C23.9214 1.71424 29.1724 6.96253 29.1743 13.4392C29.1743 13.4412 29.1743 13.4431 29.1743 13.4431Z" fill="url(#paint2_linear_353_282)"/>
<path d="M26.1334 3.76977C27.0314 11.0662 25.7669 18.3 22.7509 24.6468C22.0863 26.7549 21.2402 28.7964 20.2237 30.7469C25.5447 23.4542 28.1923 14.2416 27.2813 4.86367C26.9166 4.48004 26.5334 4.1154 26.1334 3.76977ZM16.0728 0C15.8636 0 15.6526 0.00379828 15.4452 0.0132939C17.9613 4.97761 19.3851 10.6199 19.3851 16.6022C19.3851 22.1248 18.1724 27.3569 16.0062 32.0345C16.0284 32.0345 16.0506 32.0345 16.0728 32.0345C16.5172 32.0345 16.9578 32.0136 17.3929 31.9756C20.9846 23.8815 21.7734 14.4467 18.9296 5.30616C18.3556 3.464 17.654 1.69782 16.8393 0.0170922C16.5838 0.00379828 16.3284 0 16.0728 0Z" fill="url(#paint3_linear_353_282)"/>
<path d="M26.1334 3.76977C27.0314 11.0662 25.7669 18.3 22.7509 24.6468C22.0863 26.7549 21.2402 28.7964 20.2237 30.7469C25.5447 23.4542 28.1923 14.2416 27.2813 4.86367C26.9166 4.48004 26.5334 4.1154 26.1334 3.76977ZM16.0728 0C15.8636 0 15.6526 0.00379828 15.4452 0.0132939C17.9613 4.97761 19.3851 10.6199 19.3851 16.6022C19.3851 22.1248 18.1724 27.3569 16.0062 32.0345C16.0284 32.0345 16.0506 32.0345 16.0728 32.0345C16.5172 32.0345 16.9578 32.0136 17.3929 31.9756C20.9846 23.8815 21.7734 14.4467 18.9296 5.30616C18.3556 3.464 17.654 1.69782 16.8393 0.0170922C16.5838 0.00379828 16.3284 0 16.0728 0Z" fill="url(#paint4_linear_353_282)"/>
<path d="M16.5892 0C17.4396 1.68472 18.1721 3.4532 18.7712 5.30164C21.7399 14.4639 20.9166 23.9211 17.1672 32.0345C18.9761 31.8859 20.7001 31.4462 22.2926 30.7628C28.1834 25.5088 31.4187 17.7781 30.8196 9.81324C30.0272 7.95912 28.8908 6.28391 27.4915 4.86189C28.4424 14.262 25.6806 23.4947 20.1242 30.8047C24.7683 22.2421 26.0304 11.9111 22.797 1.9322C22.7467 1.77609 22.6927 1.6219 22.6405 1.4658C20.7851 0.618683 18.7423 0.102797 16.5892 0Z" fill="white"/>
<path d="M59.2498 6.97247C59.0716 6.95345 58.8237 6.94083 58.515 6.94083C58.2173 6.94083 57.9781 6.94714 57.7976 6.96189C57.615 6.97247 57.4803 6.99771 57.3803 7.03363C57.2781 7.06945 57.2107 7.11585 57.1716 7.18118C57.1281 7.24021 57.0956 7.32243 57.0629 7.41737L51.6631 21.7655H51.6436L46.0916 7.39203C46.0525 7.30136 46.009 7.22972 45.9633 7.17274C45.9177 7.11585 45.8525 7.06945 45.7655 7.03363C45.6764 6.99985 45.5459 6.97247 45.3807 6.96189C45.2177 6.94714 44.9982 6.94083 44.7156 6.94083C44.3786 6.94083 44.1091 6.95141 43.9068 6.97034C43.709 6.98723 43.5612 7.02518 43.4764 7.08634C43.3895 7.14954 43.3395 7.23807 43.346 7.35834C43.3547 7.47852 43.3939 7.63025 43.4764 7.8243L49.8088 23.6927C49.8349 23.7622 49.8654 23.8212 49.9023 23.8719C49.9371 23.9225 49.9849 23.9626 50.0479 23.9963C50.1045 24.0342 50.1783 24.0617 50.261 24.0828C50.3458 24.108 50.4501 24.127 50.5675 24.1439C50.6892 24.1628 50.8306 24.1713 50.9958 24.1797C51.1631 24.1797 51.3522 24.186 51.5718 24.186C51.8631 24.186 52.1022 24.1797 52.2979 24.1628C52.4935 24.1524 52.6522 24.127 52.7805 24.0912C52.9022 24.0553 53 24.009 53.0696 23.9457C53.1413 23.8845 53.1935 23.8044 53.2348 23.7075L59.552 7.8411C59.6345 7.64714 59.6802 7.49114 59.6933 7.37514C59.7107 7.25496 59.6846 7.16429 59.6237 7.10314C59.5498 7.03994 59.428 6.99567 59.2498 6.97247Z" fill="black"/>
<path d="M155.87 23.2983L149.54 7.43005C149.508 7.36044 149.476 7.30141 149.44 7.25296C149.405 7.20228 149.355 7.16014 149.299 7.1285C149.235 7.09267 149.166 7.06315 149.083 7.03995C148.999 7.01888 148.894 6.99986 148.777 6.98092C148.658 6.9619 148.514 6.95141 148.348 6.94714C148.183 6.94714 147.992 6.94083 147.773 6.94083C147.483 6.94083 147.24 6.94714 147.045 6.9619C146.851 6.97248 146.692 6.99772 146.571 7.03364C146.444 7.06947 146.347 7.11587 146.275 7.18121C146.208 7.24024 146.153 7.32248 146.11 7.41742L139.795 23.2835C139.719 23.4755 139.669 23.6357 139.649 23.7538C139.639 23.874 139.661 23.9626 139.73 24.0259C139.793 24.087 139.915 24.127 140.096 24.1524C140.272 24.1713 140.517 24.186 140.824 24.186C141.123 24.186 141.367 24.1797 141.545 24.1628C141.726 24.1524 141.863 24.127 141.965 24.0912C142.065 24.0554 142.132 24.009 142.174 23.9457C142.219 23.8845 142.254 23.8044 142.278 23.7074L147.684 9.35955H147.701L153.25 23.7327C153.289 23.8213 153.335 23.8929 153.38 23.9499C153.42 24.009 153.492 24.0554 153.582 24.0912C153.674 24.127 153.798 24.1524 153.959 24.1628C154.126 24.1797 154.35 24.186 154.628 24.186C154.969 24.186 155.237 24.1713 155.437 24.1565C155.639 24.1376 155.78 24.0996 155.871 24.0385C155.958 23.9752 156.002 23.8845 156 23.7686C155.991 23.6504 155.952 23.4923 155.87 23.2983Z" fill="black"/>
<path d="M66.6807 7.05257C66.5746 7.02519 66.4362 6.99568 66.261 6.97248C66.0834 6.95345 65.8667 6.94083 65.5992 6.94083C65.3617 6.94083 65.1519 6.95345 64.9767 6.97248C64.7991 6.99568 64.6607 7.02519 64.5501 7.05257C64.4394 7.08422 64.3564 7.12636 64.3103 7.18121C64.2642 7.23393 64.2411 7.2951 64.2411 7.36675V23.7623C64.2411 23.8339 64.2572 23.8951 64.3011 23.9478C64.3472 23.9984 64.4209 24.0406 64.527 24.0701C64.633 24.0996 64.7738 24.1292 64.9536 24.1524C65.1311 24.1713 65.3502 24.186 65.6015 24.186C65.869 24.186 66.0857 24.1713 66.2633 24.1524C66.4385 24.127 66.5769 24.0996 66.683 24.0701C66.7913 24.0406 66.8628 23.9984 66.9043 23.9478C66.9505 23.8951 66.9666 23.8339 66.9666 23.7623V7.36675C66.9666 7.2951 66.9482 7.23393 66.9043 7.18121C66.8628 7.1285 66.789 7.08422 66.6807 7.05257Z" fill="black"/>
<path d="M81.9433 16.7354C81.5362 16.3611 81.0666 16.0325 80.5431 15.754C80.0176 15.4754 79.4834 15.2209 78.9406 14.9901C78.3977 14.7595 77.8636 14.5289 77.338 14.3026C76.8124 14.0762 76.3449 13.826 75.9357 13.5518C75.5221 13.2775 75.1969 12.9643 74.9492 12.6117C74.7079 12.2591 74.5808 11.8305 74.5808 11.343C74.5808 11.0101 74.6454 10.6902 74.7726 10.39C74.9018 10.0918 75.0956 9.83282 75.3541 9.61742C75.6105 9.3955 75.9335 9.22138 76.332 9.09304C76.7241 8.9624 77.1894 8.89497 77.7214 8.89497C78.2987 8.89497 78.8156 8.9624 79.2766 9.09304C79.7376 9.22138 80.1317 9.36715 80.47 9.52825C80.8016 9.68705 81.0924 9.82851 81.3229 9.95906C81.5534 10.0831 81.7257 10.1484 81.8335 10.1484C81.9002 10.1484 81.9627 10.1267 82.0165 10.0853C82.0726 10.0461 82.1156 9.9808 82.1458 9.89163C82.1738 9.81108 82.1953 9.70228 82.2082 9.57394C82.2276 9.4455 82.2363 9.30404 82.2363 9.13652C82.2363 8.9668 82.2276 8.82534 82.2212 8.71654C82.2039 8.60122 82.1932 8.51416 82.1738 8.43361C82.1544 8.35967 82.1285 8.29435 82.0983 8.24436C82.0683 8.19647 82.0058 8.12684 81.9153 8.03978C81.8227 7.95492 81.6267 7.8418 81.3272 7.70034C81.0321 7.55888 80.6918 7.43485 80.3127 7.31953C79.9336 7.20632 79.5286 7.11495 79.0935 7.04532C78.6692 6.98 78.2384 6.94083 77.814 6.94083C76.9848 6.94083 76.2093 7.04532 75.492 7.2499C74.7747 7.45438 74.1586 7.75254 73.6395 8.14207C73.1204 8.5359 72.7176 9.01249 72.4225 9.59137C72.1295 10.1702 71.9874 10.8252 71.9874 11.5628C71.9874 12.2744 72.1079 12.8924 72.3643 13.406C72.6142 13.9173 72.9459 14.37 73.3509 14.7486C73.7558 15.1294 74.2146 15.4602 74.7295 15.7453C75.2442 16.0238 75.7742 16.2828 76.317 16.5134C76.8619 16.7441 77.394 16.9725 77.9109 17.1924C78.4322 17.4165 78.8953 17.6624 79.3003 17.9322C79.7052 18.1977 80.0327 18.511 80.2783 18.8658C80.5217 19.2204 80.6466 19.6469 80.6466 20.1453C80.6466 20.6109 80.5625 21.0201 80.3794 21.3857C80.2028 21.7513 79.9486 22.0559 79.617 22.3061C79.2852 22.5542 78.8889 22.75 78.4301 22.885C77.9691 23.0199 77.4629 23.0896 76.9093 23.0896C76.1812 23.0896 75.5329 23.009 74.975 22.8523C74.4128 22.6935 73.9367 22.5237 73.5447 22.3432C73.1484 22.1603 72.8253 21.9949 72.5711 21.8383C72.317 21.6859 72.1252 21.6076 71.9874 21.6076C71.9098 21.6076 71.8388 21.6228 71.7806 21.6555C71.7202 21.6859 71.6707 21.7425 71.6341 21.8231C71.5889 21.9079 71.563 22.0123 71.5436 22.1451C71.5199 22.2778 71.5092 22.441 71.5092 22.6434C71.5092 22.9241 71.5372 23.1461 71.591 23.3137C71.6471 23.4812 71.7353 23.6226 71.8452 23.7315C71.9572 23.8403 72.1597 23.9708 72.4548 24.1253C72.7478 24.2799 73.1075 24.43 73.534 24.5736C73.9669 24.7216 74.4559 24.8434 75.0051 24.9435C75.5566 25.0436 76.1489 25.0937 76.793 25.0937C77.7128 25.0937 78.5722 24.9805 79.3649 24.7521C80.1619 24.5257 80.8577 24.1863 81.4414 23.738C82.0316 23.2875 82.4883 22.7392 82.82 22.0951C83.1517 21.4509 83.3197 20.7154 83.3197 19.8885C83.3197 19.19 83.1905 18.585 82.9406 18.0693C82.6843 17.5601 82.3525 17.1097 81.9433 16.7354Z" fill="black"/>
<path d="M91.2077 7.05257C91.1015 7.02519 90.9632 6.99568 90.7908 6.97248C90.6155 6.95345 90.397 6.94083 90.1325 6.94083C89.892 6.94083 89.6786 6.95345 89.5032 6.97248C89.3299 6.99568 89.1896 7.02519 89.0774 7.05257C88.9661 7.08422 88.888 7.12636 88.8399 7.18121C88.7918 7.23393 88.7708 7.2951 88.7708 7.36675V23.7623C88.7708 23.8339 88.7918 23.8951 88.8329 23.9478C88.874 23.9984 88.9481 24.0406 89.0543 24.0701C89.1595 24.0996 89.3028 24.1292 89.4852 24.1524C89.6686 24.1713 89.881 24.186 90.1345 24.186C90.399 24.186 90.6185 24.1713 90.7928 24.1524C90.9682 24.127 91.1065 24.0996 91.2097 24.0701C91.3159 24.0406 91.39 23.9984 91.4361 23.9478C91.4792 23.8951 91.4963 23.8339 91.4963 23.7623V7.36675C91.4963 7.2951 91.4772 7.23393 91.4361 7.18121C91.388 7.1285 91.3139 7.08422 91.2077 7.05257Z" fill="black"/>
<path d="M112.931 9.23899C112.19 8.4882 111.266 7.92017 110.158 7.5284C109.047 7.13882 107.747 6.94083 106.246 6.94083C104.702 6.94083 103.339 7.16066 102.18 7.59152C101.015 8.02247 100.045 8.63179 99.2701 9.43268C98.4922 10.2271 97.9147 11.1912 97.5248 12.3272C97.1368 13.4611 96.9473 14.7234 96.9473 16.1163C96.9473 17.5678 97.1259 18.8519 97.4771 19.9684C97.8324 21.087 98.3781 22.0207 99.1054 22.7759C99.8357 23.5311 100.755 24.1034 101.868 24.5017C102.983 24.8956 104.309 25.0937 105.837 25.0937C107.387 25.0937 108.741 24.8761 109.905 24.4429C111.066 24.0142 112.033 23.3939 112.801 22.5908C113.57 21.7899 114.15 20.815 114.538 19.6702C114.924 18.5233 115.117 17.2414 115.117 15.8138C115.117 14.3882 114.94 13.1238 114.577 12.0204C114.218 10.9126 113.669 9.98768 112.931 9.23899ZM111.951 18.6866C111.739 19.5375 111.389 20.2927 110.899 20.9412C110.406 21.5919 109.759 22.1056 108.958 22.4864C108.151 22.8673 107.156 23.0588 105.972 23.0588C104.781 23.0588 103.789 22.8847 103 22.5364C102.208 22.1861 101.578 21.6963 101.111 21.0609C100.636 20.4341 100.301 19.6811 100.1 18.8106C99.9042 17.9357 99.8059 16.9846 99.8059 15.9465C99.8059 15.0129 99.9111 14.1184 100.127 13.2718C100.342 12.423 100.695 11.6808 101.193 11.0454C101.69 10.4099 102.335 9.90061 103.132 9.51764C103.926 9.13458 104.909 8.94521 106.079 8.94521C107.25 8.94521 108.235 9.12587 109.031 9.47406C109.823 9.83097 110.459 10.3185 110.936 10.954C111.412 11.5852 111.753 12.3294 111.953 13.189C112.158 14.0487 112.262 14.978 112.262 15.977C112.264 16.9302 112.158 17.8312 111.951 18.6866Z" fill="black"/>
<path d="M134.825 7.05495C134.72 7.01477 134.582 6.98733 134.407 6.9704C134.229 6.95348 134.015 6.94083 133.77 6.94083C133.491 6.94083 133.268 6.95134 133.096 6.9704C132.922 6.98733 132.785 7.01477 132.681 7.05495C132.575 7.09503 132.502 7.14367 132.457 7.19436C132.411 7.24719 132.39 7.3043 132.39 7.36763V16.6528C132.39 17.3522 132.392 18.0749 132.392 18.8272C132.404 19.5816 132.413 20.3085 132.434 21.0058H132.418C132.174 20.5916 131.924 20.1775 131.677 19.7696C131.427 19.3576 131.175 18.9392 130.923 18.5187C130.668 18.0939 130.404 17.667 130.129 17.2296C129.857 16.7901 129.567 16.3443 129.276 15.8857L124.48 8.37136C124.307 8.1009 124.145 7.87266 123.986 7.69102C123.831 7.51347 123.665 7.36763 123.496 7.2684C123.331 7.16479 123.136 7.09503 122.927 7.04862C122.714 7.00426 122.454 6.98519 122.141 6.98519H120.804C120.522 6.98519 120.263 7.05913 120.022 7.20915C119.782 7.35917 119.66 7.60852 119.66 7.96567V23.7592C119.66 23.8205 119.683 23.8797 119.729 23.9367C119.775 23.9938 119.843 24.0402 119.944 24.0698C120.043 24.0995 120.181 24.129 120.35 24.1523C120.525 24.1713 120.742 24.186 121.008 24.186C121.279 24.186 121.496 24.1713 121.667 24.1523C121.84 24.1269 121.981 24.0995 122.081 24.0698C122.191 24.0402 122.265 23.9958 122.308 23.9367C122.354 23.8797 122.377 23.8205 122.377 23.7592V13.4302C122.377 12.7751 122.368 12.1201 122.359 11.4587C122.35 10.7973 122.331 10.1485 122.308 9.51246H122.338C122.631 10.0366 122.932 10.567 123.266 11.1227C123.599 11.6764 123.924 12.2004 124.251 12.7033L130.485 22.4385C130.697 22.7871 130.9 23.064 131.092 23.2858C131.28 23.5078 131.473 23.681 131.668 23.8099C131.855 23.9388 132.058 24.0254 132.266 24.0719C132.48 24.1226 132.727 24.1459 133.011 24.1459H133.908C134.047 24.1459 134.195 24.129 134.337 24.093C134.476 24.0571 134.605 24.0001 134.718 23.9198C134.834 23.8374 134.926 23.7402 134.997 23.6176C135.066 23.493 135.104 23.345 135.104 23.1654V7.37191C135.104 7.30848 135.082 7.25147 135.034 7.19864C134.997 7.14367 134.924 7.09717 134.825 7.05495Z" fill="black"/>
<defs>
<radialGradient id="paint0_radial_353_282" cx="0" cy="0" r="1" gradientUnits="userSpaceOnUse" gradientTransform="translate(16.0173 16.0172) scale(16.0187 16.0158)">
<stop offset="0.58" stop-color="#F6A117"/>
<stop offset="0.7017" stop-color="#F69F17"/>
<stop offset="0.7832" stop-color="#F49818"/>
<stop offset="0.8531" stop-color="#F28B1A"/>
<stop offset="0.9163" stop-color="#EF791C"/>
<stop offset="0.9745" stop-color="#EB611D"/>
<stop offset="1" stop-color="#E9521D"/>
</radialGradient>
<linearGradient id="paint1_linear_353_282" x1="7.06598" y1="25.9224" x2="29.6703" y2="-0.726027" gradientUnits="userSpaceOnUse">
<stop offset="0.0961" stop-color="#E9521D"/>
<stop offset="1" stop-color="#F6A117"/>
</linearGradient>
<linearGradient id="paint2_linear_353_282" x1="8.73732" y1="23.1983" x2="24.356" y2="5.69971" gradientUnits="userSpaceOnUse">
<stop stop-color="#E9521D"/>
<stop offset="1" stop-color="#F6A117"/>
</linearGradient>
<linearGradient id="paint3_linear_353_282" x1="21.2316" y1="29.2533" x2="21.5005" y2="0.334711" gradientUnits="userSpaceOnUse">
<stop stop-color="white"/>
<stop offset="1"/>
</linearGradient>
<linearGradient id="paint4_linear_353_282" x1="21.2316" y1="29.2533" x2="21.5005" y2="0.334711" gradientUnits="userSpaceOnUse">
<stop stop-color="#B94817"/>
<stop offset="1" stop-color="#F6A117"/>
</linearGradient>
</defs>
</svg>
