<svg width="156" height="33" viewBox="0 0 156 33" fill="none" xmlns="http://www.w3.org/2000/svg">
<path d="M32.0345 16.0172C32.0364 24.8613 24.8657 32.0326 16.0201 32.0345C7.17448 32.0364 0.00190321 24.867 4.1918e-06 16.0229C4.1918e-06 16.0211 4.1918e-06 16.0192 4.1918e-06 16.0172C-0.00189482 7.17321 7.16879 0.00189906 16.0144 3.77033e-07C24.86 -0.0018983 32.0326 7.16751 32.0345 16.0116C32.0345 16.0135 32.0345 16.0153 32.0345 16.0172Z" fill="url(#paint0_radial_259_26)"/>
<path d="M31.4605 15.4461C31.4624 23.6588 24.6755 30.3164 16.3033 30.3183C7.93292 30.3202 1.14408 23.6627 1.14408 15.4499C1.14408 15.4481 1.14408 15.4461 1.14408 15.4442C1.14213 7.2315 7.92904 0.572035 16.3013 0.572035C24.6736 0.570127 31.4624 7.22769 31.4624 15.4404C31.4605 15.4423 31.4605 15.4442 31.4605 15.4461Z" fill="url(#paint1_linear_259_26)"/>
<path d="M29.1742 13.4431C29.1761 19.9179 23.927 25.168 17.4492 25.1699C10.9734 25.1718 5.7223 19.9235 5.72042 13.4468C5.72042 13.4449 5.72042 13.4449 5.72042 13.4431C5.71853 6.96819 10.9677 1.71802 17.4454 1.71612C23.9213 1.71423 29.1723 6.96252 29.1742 13.4392C29.1742 13.4412 29.1742 13.4431 29.1742 13.4431Z" fill="url(#paint2_linear_259_26)"/>
<path d="M26.1334 3.76977C27.0314 11.0662 25.7669 18.3 22.7509 24.6468C22.0863 26.7549 21.2402 28.7964 20.2237 30.7469C25.5447 23.4542 28.1923 14.2416 27.2813 4.86367C26.9166 4.48004 26.5334 4.1154 26.1334 3.76977ZM16.0729 0C15.8636 0 15.6526 0.00379828 15.4452 0.0132939C17.9613 4.97761 19.3851 10.6199 19.3851 16.6022C19.3851 22.1248 18.1724 27.3569 16.0062 32.0345C16.0284 32.0345 16.0506 32.0345 16.0729 32.0345C16.5172 32.0345 16.9578 32.0136 17.3929 31.9756C20.9847 23.8815 21.7734 14.4467 18.9296 5.30616C18.3557 3.464 17.654 1.69782 16.8393 0.0170922C16.5838 0.00379828 16.3284 0 16.0729 0Z" fill="url(#paint3_linear_259_26)"/>
<path d="M26.1334 3.76977C27.0314 11.0662 25.7669 18.3 22.7509 24.6468C22.0863 26.7549 21.2402 28.7964 20.2237 30.7469C25.5447 23.4542 28.1923 14.2416 27.2813 4.86367C26.9166 4.48004 26.5334 4.1154 26.1334 3.76977ZM16.0729 0C15.8636 0 15.6526 0.00379828 15.4452 0.0132939C17.9613 4.97761 19.3851 10.6199 19.3851 16.6022C19.3851 22.1248 18.1724 27.3569 16.0062 32.0345C16.0284 32.0345 16.0506 32.0345 16.0729 32.0345C16.5172 32.0345 16.9578 32.0136 17.3929 31.9756C20.9847 23.8815 21.7734 14.4467 18.9296 5.30616C18.3557 3.464 17.654 1.69782 16.8393 0.0170922C16.5838 0.00379828 16.3284 0 16.0729 0Z" fill="url(#paint4_linear_259_26)"/>
<path d="M16.5893 0C17.4397 1.68472 18.1721 3.4532 18.7713 5.30164C21.7399 14.4639 20.9166 23.9211 17.1672 32.0345C18.9761 31.8859 20.7001 31.4462 22.2927 30.7628C28.1834 25.5088 31.4187 17.7781 30.8196 9.81324C30.0272 7.95912 28.8908 6.28391 27.4916 4.86189C28.4424 14.262 25.6806 23.4947 20.1242 30.8047C24.7684 22.2421 26.0304 11.9111 22.797 1.9322C22.7468 1.77609 22.6927 1.6219 22.6405 1.4658C20.7851 0.618683 18.7423 0.102797 16.5893 0Z" fill="white"/>
<path d="M59.2497 6.97246C59.0715 6.95344 58.8237 6.94081 58.515 6.94081C58.2172 6.94081 57.9781 6.94713 57.7976 6.96188C57.615 6.97246 57.4802 6.9977 57.3802 7.03362C57.2781 7.06944 57.2107 7.11584 57.1715 7.18117C57.128 7.24019 57.0955 7.32242 57.0629 7.41735L51.6631 21.7655H51.6435L46.0915 7.39202C46.0524 7.30135 46.0089 7.22971 45.9632 7.17273C45.9177 7.11584 45.8524 7.06944 45.7654 7.03362C45.6764 6.99984 45.5459 6.97246 45.3807 6.96188C45.2177 6.94713 44.9981 6.94081 44.7155 6.94081C44.3785 6.94081 44.109 6.95139 43.9068 6.97033C43.709 6.98722 43.5612 7.02517 43.4764 7.08633C43.3895 7.14953 43.3394 7.23806 43.346 7.35833C43.3547 7.47851 43.3938 7.63024 43.4764 7.82429L49.8088 23.6927C49.8349 23.7622 49.8653 23.8212 49.9023 23.8719C49.9371 23.9225 49.9848 23.9626 50.0479 23.9963C50.1044 24.0342 50.1783 24.0617 50.2609 24.0827C50.3457 24.108 50.45 24.127 50.5675 24.1439C50.6892 24.1628 50.8305 24.1713 50.9957 24.1797C51.1631 24.1797 51.3522 24.186 51.5717 24.186C51.8631 24.186 52.1022 24.1797 52.2978 24.1628C52.4935 24.1523 52.6521 24.127 52.7804 24.0912C52.9021 24.0553 53 24.009 53.0696 23.9457C53.1412 23.8845 53.1934 23.8044 53.2348 23.7075L59.5519 7.84109C59.6345 7.64713 59.6802 7.49113 59.6932 7.37513C59.7106 7.25495 59.6845 7.16428 59.6236 7.10313C59.5498 7.03993 59.428 6.99566 59.2497 6.97246Z" fill="white"/>
<path d="M155.869 23.2983L149.54 7.43004C149.508 7.36043 149.476 7.3014 149.439 7.25295C149.404 7.20227 149.355 7.16013 149.299 7.12848C149.235 7.09266 149.166 7.06314 149.083 7.03994C148.999 7.01887 148.894 6.99984 148.777 6.98091C148.658 6.96188 148.514 6.9514 148.348 6.94713C148.183 6.94713 147.992 6.94081 147.773 6.94081C147.483 6.94081 147.24 6.94713 147.045 6.96188C146.851 6.97246 146.692 6.99771 146.571 7.03363C146.444 7.06945 146.347 7.11586 146.275 7.1812C146.208 7.24023 146.153 7.32246 146.11 7.41741L139.795 23.2835C139.719 23.4755 139.669 23.6357 139.649 23.7538C139.639 23.874 139.661 23.9625 139.73 24.0258C139.793 24.087 139.915 24.127 140.096 24.1523C140.271 24.1713 140.517 24.186 140.824 24.186C141.123 24.186 141.367 24.1797 141.545 24.1628C141.726 24.1523 141.863 24.127 141.965 24.0912C142.065 24.0554 142.132 24.0089 142.174 23.9457C142.219 23.8845 142.254 23.8044 142.278 23.7074L147.684 9.35954H147.701L153.25 23.7327C153.289 23.8213 153.335 23.8929 153.38 23.9499C153.42 24.0089 153.492 24.0554 153.582 24.0912C153.674 24.127 153.798 24.1523 153.959 24.1628C154.126 24.1797 154.35 24.186 154.628 24.186C154.969 24.186 155.237 24.1713 155.436 24.1565C155.639 24.1376 155.78 24.0996 155.871 24.0385C155.958 23.9752 156.002 23.8845 156 23.7686C155.991 23.6504 155.952 23.4923 155.869 23.2983Z" fill="white"/>
<path d="M66.6806 7.05256C66.5745 7.02518 66.4362 6.99567 66.2609 6.97246C66.0833 6.95344 65.8666 6.94081 65.5991 6.94081C65.3616 6.94081 65.1518 6.95344 64.9766 6.97246C64.799 6.99567 64.6606 7.02518 64.55 7.05256C64.4393 7.08421 64.3563 7.12635 64.3102 7.1812C64.2641 7.23392 64.241 7.29508 64.241 7.36674V23.7622C64.241 23.8339 64.2572 23.8951 64.301 23.9478C64.3471 23.9984 64.4208 24.0406 64.5269 24.0701C64.633 24.0996 64.7737 24.1291 64.9535 24.1523C65.131 24.1713 65.3501 24.186 65.6014 24.186C65.8689 24.186 66.0856 24.1713 66.2632 24.1523C66.4385 24.127 66.5768 24.0996 66.6829 24.0701C66.7912 24.0406 66.8627 23.9984 66.9042 23.9478C66.9504 23.8951 66.9665 23.8339 66.9665 23.7622V7.36674C66.9665 7.29508 66.9481 7.23392 66.9042 7.1812C66.8627 7.12848 66.7889 7.08421 66.6806 7.05256Z" fill="white"/>
<path d="M81.9432 16.7354C81.5361 16.3611 81.0665 16.0325 80.543 15.754C80.0175 15.4754 79.4833 15.2209 78.9405 14.9901C78.3976 14.7595 77.8635 14.5289 77.3379 14.3025C76.8123 14.0762 76.3448 13.826 75.9356 13.5517C75.522 13.2775 75.1968 12.9643 74.9491 12.6117C74.7078 12.2591 74.5807 11.8305 74.5807 11.343C74.5807 11.0101 74.6453 10.6902 74.7725 10.3899C74.9017 10.0918 75.0955 9.83281 75.354 9.61741C75.6104 9.39549 75.9334 9.22137 76.3319 9.09303C76.724 8.96239 77.1893 8.89496 77.7213 8.89496C78.2986 8.89496 78.8155 8.96239 79.2765 9.09303C79.7374 9.22137 80.1316 9.36714 80.4698 9.52824C80.8015 9.68704 81.0923 9.8285 81.3228 9.95905C81.5533 10.0831 81.7256 10.1484 81.8334 10.1484C81.9001 10.1484 81.9626 10.1267 82.0164 10.0853C82.0725 10.0461 82.1155 9.98079 82.1456 9.89162C82.1737 9.81107 82.1952 9.70227 82.2081 9.57393C82.2275 9.44549 82.2361 9.30403 82.2361 9.13651C82.2361 8.96679 82.2275 8.82533 82.2211 8.71653C82.2038 8.60121 82.1931 8.51415 82.1737 8.4336C82.1543 8.35966 82.1284 8.29434 82.0982 8.24434C82.0682 8.19646 82.0057 8.12683 81.9152 8.03976C81.8226 7.95491 81.6266 7.84179 81.3271 7.70033C81.032 7.55887 80.6917 7.43483 80.3126 7.31952C79.9335 7.20631 79.5285 7.11494 79.0934 7.04531C78.6691 6.97999 78.2383 6.94081 77.8139 6.94081C76.9847 6.94081 76.2092 7.04531 75.4918 7.24989C74.7746 7.45437 74.1585 7.75253 73.6394 8.14205C73.1203 8.53589 72.7175 9.01248 72.4224 9.59136C72.1294 10.1701 71.9873 10.8252 71.9873 11.5628C71.9873 12.2744 72.1078 12.8924 72.3642 13.406C72.6141 13.9173 72.9458 14.37 73.3508 14.7486C73.7557 15.1294 74.2145 15.4602 74.7294 15.7452C75.2441 16.0238 75.774 16.2827 76.3169 16.5134C76.8618 16.7441 77.3939 16.9725 77.9108 17.1923C78.4321 17.4165 78.8952 17.6624 79.3002 17.9322C79.7051 18.1977 80.0326 18.511 80.2782 18.8658C80.5216 19.2204 80.6465 19.6469 80.6465 20.1453C80.6465 20.6109 80.5624 21.0201 80.3793 21.3857C80.2027 21.7512 79.9485 22.0559 79.6169 22.3061C79.2851 22.5541 78.8888 22.75 78.43 22.885C77.969 23.0199 77.4628 23.0895 76.9092 23.0895C76.1811 23.0895 75.5328 23.009 74.9749 22.8523C74.4127 22.6935 73.9366 22.5237 73.5446 22.3432C73.1483 22.1603 72.8252 21.9949 72.571 21.8383C72.3169 21.6859 72.1251 21.6076 71.9873 21.6076C71.9097 21.6076 71.8387 21.6228 71.7805 21.6555C71.7201 21.6859 71.6706 21.7425 71.634 21.8231C71.5888 21.9079 71.5629 22.0123 71.5435 22.1451C71.5198 22.2778 71.509 22.441 71.509 22.6434C71.509 22.9241 71.5371 23.146 71.5909 23.3137C71.647 23.4812 71.7352 23.6226 71.8451 23.7314C71.9571 23.8402 72.1596 23.9708 72.4547 24.1253C72.7477 24.2799 73.1074 24.4299 73.5338 24.5736C73.9668 24.7216 74.4558 24.8434 75.005 24.9435C75.5565 25.0436 76.1488 25.0937 76.7929 25.0937C77.7126 25.0937 78.5721 24.9805 79.3648 24.752C80.1618 24.5257 80.8576 24.1863 81.4413 23.738C82.0315 23.2875 82.4882 22.7392 82.8199 22.0951C83.1516 21.4509 83.3196 20.7154 83.3196 19.8885C83.3196 19.19 83.1904 18.585 82.9405 18.0693C82.6842 17.5601 82.3524 17.1097 81.9432 16.7354Z" fill="white"/>
<path d="M91.2076 7.05256C91.1013 7.02518 90.9631 6.99567 90.7907 6.97246C90.6154 6.95344 90.3969 6.94081 90.1324 6.94081C89.8919 6.94081 89.6785 6.95344 89.5031 6.97246C89.3298 6.99567 89.1895 7.02518 89.0772 7.05256C88.966 7.08421 88.8879 7.12635 88.8398 7.1812C88.7917 7.23392 88.7706 7.29508 88.7706 7.36674V23.7622C88.7706 23.8339 88.7917 23.8951 88.8328 23.9478C88.8738 23.9984 88.948 24.0406 89.0542 24.0701C89.1594 24.0996 89.3027 24.1291 89.4851 24.1523C89.6684 24.1713 89.8809 24.186 90.1344 24.186C90.3989 24.186 90.6184 24.1713 90.7927 24.1523C90.9681 24.127 91.1064 24.0996 91.2096 24.0701C91.3158 24.0406 91.3899 23.9984 91.436 23.9478C91.4791 23.8951 91.4961 23.8339 91.4961 23.7622V7.36674C91.4961 7.29508 91.4771 7.23392 91.436 7.1812C91.3879 7.12848 91.3138 7.08421 91.2076 7.05256Z" fill="white"/>
<path d="M112.931 9.23898C112.19 8.48819 111.266 7.92016 110.158 7.52838C109.047 7.13881 107.747 6.94081 106.246 6.94081C104.702 6.94081 103.339 7.16065 102.18 7.59151C101.015 8.02246 100.045 8.63178 99.2701 9.43267C98.4922 10.227 97.9147 11.1912 97.5248 12.3272C97.1368 13.4611 96.9473 14.7234 96.9473 16.1162C96.9473 17.5678 97.1259 18.8519 97.4771 19.9684C97.8324 21.087 98.3781 22.0207 99.1054 22.7759C99.8357 23.5311 100.755 24.1034 101.868 24.5017C102.983 24.8956 104.309 25.0937 105.837 25.0937C107.387 25.0937 108.741 24.876 109.905 24.4429C111.066 24.0141 112.033 23.3939 112.801 22.5908C113.57 21.7899 114.15 20.815 114.538 19.6702C114.924 18.5233 115.117 17.2414 115.117 15.8137C115.117 14.3882 114.94 13.1238 114.577 12.0204C114.218 10.9126 113.669 9.98767 112.931 9.23898ZM111.951 18.6866C111.739 19.5374 111.389 20.2926 110.899 20.9412C110.406 21.5919 109.759 22.1055 108.958 22.4864C108.151 22.8673 107.156 23.0587 105.972 23.0587C104.781 23.0587 103.789 22.8847 103 22.5364C102.208 22.1861 101.578 21.6963 101.111 21.0609C100.636 20.4341 100.301 19.6811 100.1 18.8106C99.9042 17.9357 99.8059 16.9846 99.8059 15.9465C99.8059 15.0129 99.9111 14.1184 100.127 13.2718C100.342 12.423 100.695 11.6808 101.193 11.0454C101.69 10.4099 102.335 9.9006 103.132 9.51763C103.926 9.13457 104.909 8.9452 106.079 8.9452C107.25 8.9452 108.235 9.12586 109.031 9.47405C109.823 9.83096 110.459 10.3185 110.936 10.954C111.412 11.5851 111.753 12.3294 111.953 13.189C112.158 14.0487 112.262 14.978 112.262 15.977C112.264 16.9302 112.158 17.8312 111.951 18.6866Z" fill="white"/>
<path d="M134.825 7.05493C134.719 7.01476 134.582 6.98732 134.407 6.97039C134.229 6.95346 134.015 6.94081 133.77 6.94081C133.491 6.94081 133.268 6.95132 133.096 6.97039C132.922 6.98732 132.785 7.01476 132.681 7.05493C132.575 7.09502 132.502 7.14366 132.457 7.19435C132.411 7.24718 132.39 7.30429 132.39 7.36762V16.6528C132.39 17.3522 132.392 18.0748 132.392 18.8272C132.404 19.5816 132.413 20.3085 132.434 21.0058H132.418C132.174 20.5916 131.924 20.1774 131.677 19.7696C131.427 19.3576 131.175 18.9392 130.923 18.5187C130.668 18.0939 130.404 17.667 130.129 17.2296C129.857 16.7901 129.567 16.3443 129.276 15.8856L124.48 8.37135C124.307 8.10089 124.145 7.87265 123.986 7.69101C123.831 7.51346 123.665 7.36762 123.496 7.26839C123.331 7.16478 123.136 7.09502 122.927 7.04861C122.714 7.00425 122.454 6.98518 122.141 6.98518H120.804C120.522 6.98518 120.263 7.05912 120.022 7.20914C119.782 7.35916 119.66 7.60851 119.66 7.96566V23.7592C119.66 23.8205 119.683 23.8797 119.729 23.9367C119.775 23.9938 119.843 24.0402 119.944 24.0698C120.043 24.0994 120.18 24.129 120.35 24.1523C120.525 24.1712 120.742 24.186 121.008 24.186C121.279 24.186 121.496 24.1712 121.666 24.1523C121.84 24.1269 121.981 24.0994 122.081 24.0698C122.191 24.0402 122.265 23.9958 122.308 23.9367C122.354 23.8797 122.377 23.8205 122.377 23.7592V13.4302C122.377 12.7751 122.368 12.1201 122.359 11.4587C122.35 10.7972 122.331 10.1485 122.308 9.51245H122.338C122.631 10.0365 122.932 10.567 123.266 11.1227C123.599 11.6763 123.924 12.2003 124.251 12.7033L130.485 22.4385C130.697 22.7871 130.9 23.064 131.092 23.2858C131.28 23.5077 131.473 23.681 131.668 23.8099C131.855 23.9388 132.058 24.0254 132.266 24.0719C132.479 24.1226 132.727 24.1459 133.011 24.1459H133.908C134.047 24.1459 134.195 24.129 134.337 24.093C134.476 24.0571 134.605 24.0001 134.717 23.9198C134.834 23.8374 134.926 23.7402 134.997 23.6176C135.066 23.4929 135.104 23.345 135.104 23.1654V7.3719C135.104 7.30847 135.082 7.25146 135.034 7.19863C134.997 7.14366 134.924 7.09716 134.825 7.05493Z" fill="white"/>
<defs>
<radialGradient id="paint0_radial_259_26" cx="0" cy="0" r="1" gradientUnits="userSpaceOnUse" gradientTransform="translate(16.0173 16.0172) scale(16.0187 16.0158)">
<stop offset="0.58" stop-color="#F6A117"/>
<stop offset="0.7017" stop-color="#F69F17"/>
<stop offset="0.7832" stop-color="#F49818"/>
<stop offset="0.8531" stop-color="#F28B1A"/>
<stop offset="0.9163" stop-color="#EF791C"/>
<stop offset="0.9745" stop-color="#EB611D"/>
<stop offset="1" stop-color="#E9521D"/>
</radialGradient>
<linearGradient id="paint1_linear_259_26" x1="7.06602" y1="25.9225" x2="29.6704" y2="-0.726014" gradientUnits="userSpaceOnUse">
<stop offset="0.0961" stop-color="#E9521D"/>
<stop offset="1" stop-color="#F6A117"/>
</linearGradient>
<linearGradient id="paint2_linear_259_26" x1="8.73728" y1="23.1983" x2="24.356" y2="5.6997" gradientUnits="userSpaceOnUse">
<stop stop-color="#E9521D"/>
<stop offset="1" stop-color="#F6A117"/>
</linearGradient>
<linearGradient id="paint3_linear_259_26" x1="21.2316" y1="29.2533" x2="21.5005" y2="0.334711" gradientUnits="userSpaceOnUse">
<stop stop-color="white"/>
<stop offset="1"/>
</linearGradient>
<linearGradient id="paint4_linear_259_26" x1="21.2316" y1="29.2533" x2="21.5005" y2="0.334711" gradientUnits="userSpaceOnUse">
<stop stop-color="#B94817"/>
<stop offset="1" stop-color="#F6A117"/>
</linearGradient>
</defs>
</svg>
