<svg width="28" height="28" viewBox="0 0 28 28" fill="none" xmlns="http://www.w3.org/2000/svg">
<path d="M24.6667 0H3.33333C1.49333 0 0 1.49333 0 3.33333V24.6667C0 26.5067 1.49333 28 3.33333 28H24.6667C26.5067 28 28 26.5067 28 24.6667V3.33333C28 1.49333 26.5067 0 24.6667 0ZM22 10H20.6667C19.24 10 18.6667 10.3333 18.6667 11.3333V13.3333H22L21.3333 16.6667H18.6667V27.75H15.3333V16.6667H12.6667V13.3333H15.3333V11.3333C15.3333 8.66667 16.6667 6.66667 19.3333 6.66667C21.2667 6.66667 22 7.33333 22 7.33333V10Z" fill="white"/>
</svg>
