<svg width="28" height="28" viewBox="0 0 28 28" fill="none" xmlns="http://www.w3.org/2000/svg">
<path d="M8.75 8.4182L9.695 10.9382H7.805L8.75 8.4182ZM11.354 10.4384C12.4418 9.0076 14.0084 7.9716 15.946 7.4326C14.8064 4.9476 12.264 3.5 8.75 3.5C3.8892 3.5 0.875 6.265 0.875 10.7184C0.875 12.9892 1.6632 14.8176 3.0758 16.065L0.875 18.2658L1.5316 19.25C3.23881 19.2498 4.8993 18.6924 6.2608 17.6624C7.07721 17.8495 7.91244 17.942 8.75 17.9382C9.1084 17.9382 9.4542 17.9158 9.7958 17.8892C9.6816 17.2553 9.62444 16.6125 9.625 15.9684C9.625 14.7742 9.8126 13.6808 10.1584 12.6868H7.1484L6.6584 14H4.8118L7.4382 7H10.0632L11.354 10.4384ZM19.25 16.3268C19.684 15.9348 20.055 15.4574 20.3 14.875H18.2042C18.4492 15.4574 18.8202 15.9334 19.2542 16.3268H19.25ZM24.9242 21.315L27.125 23.5158L26.4684 24.5C24.7612 24.4998 23.1007 23.9424 21.7392 22.9124C20.9228 23.0995 20.0876 23.192 19.25 23.1882C14.3892 23.1882 11.375 20.4232 11.375 15.9684C11.375 11.5136 14.3892 8.75 19.25 8.75C24.1108 8.75 27.125 11.515 27.125 15.9684C27.125 18.2392 26.3382 20.0676 24.9242 21.315ZM23.1882 13.125H20.125V11.8132H18.375V13.125H15.3132V14.875H16.4024C16.6806 15.7773 17.1625 16.6036 17.8108 17.29C16.6026 17.885 15.4574 18.0516 15.4574 18.0516L16.0692 19.6924C17.1971 19.4964 18.276 19.0827 19.2458 18.4744C20.2156 19.0827 21.2945 19.4964 22.4224 19.6924L23.0342 18.0516C23.0342 18.0516 21.8876 17.885 20.6808 17.29C21.3333 16.6067 21.8157 15.7794 22.0892 14.875H23.1784V13.125H23.1882Z" fill="white"/>
</svg>
